<svg width="48" height="40" viewBox="0 0 48 40" fill="none" xmlns="http://www.w3.org/2000/svg">
<path d="M19.96 0.0239944L12.536 28.44L10.488 18.84C13.4747 18.84 15.9493 19.7787 17.912 21.656C19.8747 23.5333 20.856 26.0507 20.856 29.208C20.856 32.3653 19.8747 34.9253 17.912 36.888C15.9493 38.7653 13.5173 39.704 10.616 39.704C7.544 39.704 5.02667 38.7227 3.064 36.76C1.10133 34.7973 0.12 32.28 0.12 29.208C0.12 28.184 0.162667 27.2453 0.248 26.392C0.418667 25.4533 0.717333 24.344 1.144 23.064C1.57067 21.784 2.168 20.1627 2.936 18.2L9.72 0.0239944H19.96ZM47.096 0.0239944L39.672 28.44L37.624 18.84C40.6107 18.84 43.0853 19.7787 45.048 21.656C47.0107 23.5333 47.992 26.0507 47.992 29.208C47.992 32.3653 47.0107 34.9253 45.048 36.888C43.0853 38.7653 40.6533 39.704 37.752 39.704C34.68 39.704 32.1627 38.7227 30.2 36.76C28.2373 34.7973 27.256 32.28 27.256 29.208C27.256 28.184 27.2987 27.2453 27.384 26.392C27.5547 25.4533 27.8533 24.344 28.28 23.064C28.7067 21.784 29.304 20.1627 30.072 18.2L36.856 0.0239944H47.096Z" fill="white"/>
</svg>
